<svg width="35" height="25" viewBox="0 0 35 25" fill="none" xmlns="http://www.w3.org/2000/svg">
<path d="M1.75 15.75H20.125C21.0547 15.75 21.875 14.9844 21.875 14V1.75C21.875 0.820312 21.0547 0 20.125 0H1.75C0.765625 0 0 0.820312 0 1.75V14C0 14.9844 0.765625 15.75 1.75 15.75ZM1.75 1.75H20.125V14H1.75V1.75ZM33.9609 9.51562L30.7344 6.28906C30.0781 5.63281 29.2031 5.30469 28.2734 5.30469H24.5C24.0078 5.30469 23.625 5.6875 23.625 6.17969V17.5547H12.4688C11.8125 17.0078 10.9922 16.6797 10.0625 16.6797C8.80469 16.6797 7.71094 17.2266 7 18.1562C6.23438 17.2266 5.14062 16.625 3.9375 16.625C1.75 16.625 0 18.4297 0 20.5625C0 22.75 1.75 24.5 3.9375 24.5C5.14062 24.5 6.23438 23.9531 7 23.0234C7.71094 23.9531 8.80469 24.5 10.0625 24.5C12.1953 24.5 14 22.75 14 20.5625C14 20.125 13.8906 19.6875 13.7266 19.25H24.5547C24.3906 20.0156 24.4453 20.7812 24.7188 21.6016C25.1562 22.9688 26.3594 24.0625 27.7812 24.3906C30.625 25.1016 33.25 22.9141 33.25 20.125C33.25 19.8516 33.1953 19.5781 33.1406 19.25H34.125C34.5625 19.25 35 18.8672 35 18.375V11.9766C35 11.0469 34.6172 10.1719 33.9609 9.51562ZM3.9375 22.75C2.67969 22.75 1.75 21.8203 1.75 20.5625C1.75 19.3594 2.67969 18.375 3.9375 18.375C5.14062 18.375 6.125 19.3594 6.125 20.5625C6.125 21.8203 5.14062 22.75 3.9375 22.75ZM10.0625 22.75C8.80469 22.75 7.875 21.8203 7.875 20.5625C7.875 19.3594 8.80469 18.375 10.0625 18.375C11.2656 18.375 12.25 19.3594 12.25 20.5625C12.25 21.8203 11.2656 22.75 10.0625 22.75ZM25.375 7H28.2734C28.7656 7 29.2031 7.21875 29.5312 7.54688L32.4844 10.5H25.375V7ZM28.875 22.75C27.3984 22.75 26.25 21.6016 26.25 20.125C26.25 18.7031 27.3984 17.5 28.875 17.5C30.2969 17.5 31.5 18.7031 31.5 20.125C31.5 21.6016 30.2969 22.75 28.875 22.75ZM33.25 17.5H32.3203C31.5547 16.4609 30.2969 15.75 28.875 15.75C27.3984 15.75 26.1953 16.4609 25.375 17.5V12.25H33.25V17.5ZM5.6875 12.25H6.5625C6.78125 12.25 7 12.0859 7 11.8125V3.9375C7 3.71875 6.78125 3.5 6.5625 3.5H5.6875C5.41406 3.5 5.25 3.71875 5.25 3.9375V11.8125C5.25 12.0859 5.41406 12.25 5.6875 12.25ZM10.9375 12.25H11.8125C12.0312 12.25 12.25 12.0859 12.25 11.8125V3.9375C12.25 3.71875 12.0312 3.5 11.8125 3.5H10.9375C10.6641 3.5 10.5 3.71875 10.5 3.9375V11.8125C10.5 12.0859 10.6641 12.25 10.9375 12.25ZM16.1875 12.25H17.0625C17.2812 12.25 17.5 12.0859 17.5 11.8125V3.9375C17.5 3.71875 17.2812 3.5 17.0625 3.5H16.1875C15.9141 3.5 15.75 3.71875 15.75 3.9375V11.8125C15.75 12.0859 15.9141 12.25 16.1875 12.25Z" fill="#5C8EE6"/>
</svg>
